<mxfile host="65bd71144e">
    <diagram id="WmXZn-xdo7FN-RLZN24F" name="第 1 页">
        <mxGraphModel dx="550" dy="493" grid="1" gridSize="10" guides="1" tooltips="1" connect="1" arrows="1" fold="1" page="1" pageScale="1" pageWidth="827" pageHeight="1169" math="0" shadow="0">
            <root>
                <mxCell id="0"/>
                <mxCell id="1" parent="0"/>
                <mxCell id="3" value="" style="shape=table;html=1;whiteSpace=wrap;startSize=0;container=1;collapsible=0;childLayout=tableLayout;" vertex="1" parent="1">
                    <mxGeometry x="120" y="180" width="471" height="23" as="geometry"/>
                </mxCell>
                <mxCell id="4" value="" style="shape=tableRow;horizontal=0;startSize=0;swimlaneHead=0;swimlaneBody=0;top=0;left=0;bottom=0;right=0;collapsible=0;dropTarget=0;fillColor=none;points=[[0,0.5],[1,0.5]];portConstraint=eastwest;" vertex="1" parent="3">
                    <mxGeometry width="471" height="23" as="geometry"/>
                </mxCell>
                <mxCell id="101" value="0" style="shape=partialRectangle;html=1;whiteSpace=wrap;connectable=0;fillColor=none;top=0;left=0;bottom=0;right=0;overflow=hidden;" vertex="1" parent="4">
                    <mxGeometry width="27" height="23" as="geometry">
                        <mxRectangle width="27" height="23" as="alternateBounds"/>
                    </mxGeometry>
                </mxCell>
                <mxCell id="5" value="1" style="shape=partialRectangle;html=1;whiteSpace=wrap;connectable=0;fillColor=none;top=0;left=0;bottom=0;right=0;overflow=hidden;" vertex="1" parent="4">
                    <mxGeometry x="27" width="27" height="23" as="geometry">
                        <mxRectangle width="27" height="23" as="alternateBounds"/>
                    </mxGeometry>
                </mxCell>
                <mxCell id="6" value="2" style="shape=partialRectangle;html=1;whiteSpace=wrap;connectable=0;fillColor=none;top=0;left=0;bottom=0;right=0;overflow=hidden;" vertex="1" parent="4">
                    <mxGeometry x="54" width="25" height="23" as="geometry">
                        <mxRectangle width="25" height="23" as="alternateBounds"/>
                    </mxGeometry>
                </mxCell>
                <mxCell id="7" value="3" style="shape=partialRectangle;html=1;whiteSpace=wrap;connectable=0;fillColor=none;top=0;left=0;bottom=0;right=0;overflow=hidden;" vertex="1" parent="4">
                    <mxGeometry x="79" width="27" height="23" as="geometry">
                        <mxRectangle width="27" height="23" as="alternateBounds"/>
                    </mxGeometry>
                </mxCell>
                <mxCell id="8" value="4" style="shape=partialRectangle;html=1;whiteSpace=wrap;connectable=0;fillColor=none;top=0;left=0;bottom=0;right=0;overflow=hidden;" vertex="1" parent="4">
                    <mxGeometry x="106" width="26" height="23" as="geometry">
                        <mxRectangle width="26" height="23" as="alternateBounds"/>
                    </mxGeometry>
                </mxCell>
                <mxCell id="9" value="5" style="shape=partialRectangle;html=1;whiteSpace=wrap;connectable=0;fillColor=none;top=0;left=0;bottom=0;right=0;overflow=hidden;" vertex="1" parent="4">
                    <mxGeometry x="132" width="26" height="23" as="geometry">
                        <mxRectangle width="26" height="23" as="alternateBounds"/>
                    </mxGeometry>
                </mxCell>
                <mxCell id="10" value="6" style="shape=partialRectangle;html=1;whiteSpace=wrap;connectable=0;fillColor=none;top=0;left=0;bottom=0;right=0;overflow=hidden;" vertex="1" parent="4">
                    <mxGeometry x="158" width="27" height="23" as="geometry">
                        <mxRectangle width="27" height="23" as="alternateBounds"/>
                    </mxGeometry>
                </mxCell>
                <mxCell id="11" value="7" style="shape=partialRectangle;html=1;whiteSpace=wrap;connectable=0;fillColor=none;top=0;left=0;bottom=0;right=0;overflow=hidden;" vertex="1" parent="4">
                    <mxGeometry x="185" width="26" height="23" as="geometry">
                        <mxRectangle width="26" height="23" as="alternateBounds"/>
                    </mxGeometry>
                </mxCell>
                <mxCell id="12" value="8" style="shape=partialRectangle;html=1;whiteSpace=wrap;connectable=0;fillColor=none;top=0;left=0;bottom=0;right=0;overflow=hidden;" vertex="1" parent="4">
                    <mxGeometry x="211" width="26" height="23" as="geometry">
                        <mxRectangle width="26" height="23" as="alternateBounds"/>
                    </mxGeometry>
                </mxCell>
                <mxCell id="13" value="9" style="shape=partialRectangle;html=1;whiteSpace=wrap;connectable=0;fillColor=none;top=0;left=0;bottom=0;right=0;overflow=hidden;" vertex="1" parent="4">
                    <mxGeometry x="237" width="26" height="23" as="geometry">
                        <mxRectangle width="26" height="23" as="alternateBounds"/>
                    </mxGeometry>
                </mxCell>
                <mxCell id="14" value="10" style="shape=partialRectangle;html=1;whiteSpace=wrap;connectable=0;fillColor=none;top=0;left=0;bottom=0;right=0;overflow=hidden;" vertex="1" parent="4">
                    <mxGeometry x="263" width="26" height="23" as="geometry">
                        <mxRectangle width="26" height="23" as="alternateBounds"/>
                    </mxGeometry>
                </mxCell>
                <mxCell id="15" value="11" style="shape=partialRectangle;html=1;whiteSpace=wrap;connectable=0;fillColor=none;top=0;left=0;bottom=0;right=0;overflow=hidden;" vertex="1" parent="4">
                    <mxGeometry x="289" width="26" height="23" as="geometry">
                        <mxRectangle width="26" height="23" as="alternateBounds"/>
                    </mxGeometry>
                </mxCell>
                <mxCell id="16" value="12" style="shape=partialRectangle;html=1;whiteSpace=wrap;connectable=0;fillColor=none;top=0;left=0;bottom=0;right=0;overflow=hidden;" vertex="1" parent="4">
                    <mxGeometry x="315" width="26" height="23" as="geometry">
                        <mxRectangle width="26" height="23" as="alternateBounds"/>
                    </mxGeometry>
                </mxCell>
                <mxCell id="17" value="13" style="shape=partialRectangle;html=1;whiteSpace=wrap;connectable=0;fillColor=none;top=0;left=0;bottom=0;right=0;overflow=hidden;" vertex="1" parent="4">
                    <mxGeometry x="341" width="26" height="23" as="geometry">
                        <mxRectangle width="26" height="23" as="alternateBounds"/>
                    </mxGeometry>
                </mxCell>
                <mxCell id="18" value="14" style="shape=partialRectangle;html=1;whiteSpace=wrap;connectable=0;fillColor=none;top=0;left=0;bottom=0;right=0;overflow=hidden;" vertex="1" parent="4">
                    <mxGeometry x="367" width="26" height="23" as="geometry">
                        <mxRectangle width="26" height="23" as="alternateBounds"/>
                    </mxGeometry>
                </mxCell>
                <mxCell id="19" value="15" style="shape=partialRectangle;html=1;whiteSpace=wrap;connectable=0;fillColor=none;top=0;left=0;bottom=0;right=0;overflow=hidden;" vertex="1" parent="4">
                    <mxGeometry x="393" width="26" height="23" as="geometry">
                        <mxRectangle width="26" height="23" as="alternateBounds"/>
                    </mxGeometry>
                </mxCell>
                <mxCell id="20" value="16" style="shape=partialRectangle;html=1;whiteSpace=wrap;connectable=0;fillColor=none;top=0;left=0;bottom=0;right=0;overflow=hidden;" vertex="1" parent="4">
                    <mxGeometry x="419" width="26" height="23" as="geometry">
                        <mxRectangle width="26" height="23" as="alternateBounds"/>
                    </mxGeometry>
                </mxCell>
                <mxCell id="21" value="..." style="shape=partialRectangle;html=1;whiteSpace=wrap;connectable=0;fillColor=none;top=0;left=0;bottom=0;right=0;overflow=hidden;" vertex="1" parent="4">
                    <mxGeometry x="445" width="26" height="23" as="geometry">
                        <mxRectangle width="26" height="23" as="alternateBounds"/>
                    </mxGeometry>
                </mxCell>
                <mxCell id="42" value="" style="shape=table;html=1;whiteSpace=wrap;startSize=0;container=1;collapsible=0;childLayout=tableLayout;" vertex="1" parent="1">
                    <mxGeometry x="120" y="240" width="445" height="23" as="geometry"/>
                </mxCell>
                <mxCell id="43" value="" style="shape=tableRow;horizontal=0;startSize=0;swimlaneHead=0;swimlaneBody=0;top=0;left=0;bottom=0;right=0;collapsible=0;dropTarget=0;fillColor=none;points=[[0,0.5],[1,0.5]];portConstraint=eastwest;" vertex="1" parent="42">
                    <mxGeometry width="445" height="23" as="geometry"/>
                </mxCell>
                <mxCell id="61" value="0" style="shape=partialRectangle;html=1;whiteSpace=wrap;connectable=0;fillColor=none;top=0;left=0;bottom=0;right=0;overflow=hidden;" vertex="1" parent="43">
                    <mxGeometry width="27" height="23" as="geometry">
                        <mxRectangle width="27" height="23" as="alternateBounds"/>
                    </mxGeometry>
                </mxCell>
                <mxCell id="44" value="1" style="shape=partialRectangle;html=1;whiteSpace=wrap;connectable=0;fillColor=none;top=0;left=0;bottom=0;right=0;overflow=hidden;" vertex="1" parent="43">
                    <mxGeometry x="27" width="27" height="23" as="geometry">
                        <mxRectangle width="27" height="23" as="alternateBounds"/>
                    </mxGeometry>
                </mxCell>
                <mxCell id="45" value="2" style="shape=partialRectangle;html=1;whiteSpace=wrap;connectable=0;fillColor=none;top=0;left=0;bottom=0;right=0;overflow=hidden;" vertex="1" parent="43">
                    <mxGeometry x="54" width="25" height="23" as="geometry">
                        <mxRectangle width="25" height="23" as="alternateBounds"/>
                    </mxGeometry>
                </mxCell>
                <mxCell id="46" value="3" style="shape=partialRectangle;html=1;whiteSpace=wrap;connectable=0;fillColor=none;top=0;left=0;bottom=0;right=0;overflow=hidden;" vertex="1" parent="43">
                    <mxGeometry x="79" width="27" height="23" as="geometry">
                        <mxRectangle width="27" height="23" as="alternateBounds"/>
                    </mxGeometry>
                </mxCell>
                <mxCell id="47" value="4" style="shape=partialRectangle;html=1;whiteSpace=wrap;connectable=0;fillColor=none;top=0;left=0;bottom=0;right=0;overflow=hidden;" vertex="1" parent="43">
                    <mxGeometry x="106" width="26" height="23" as="geometry">
                        <mxRectangle width="26" height="23" as="alternateBounds"/>
                    </mxGeometry>
                </mxCell>
                <mxCell id="48" value="5" style="shape=partialRectangle;html=1;whiteSpace=wrap;connectable=0;fillColor=none;top=0;left=0;bottom=0;right=0;overflow=hidden;" vertex="1" parent="43">
                    <mxGeometry x="132" width="26" height="23" as="geometry">
                        <mxRectangle width="26" height="23" as="alternateBounds"/>
                    </mxGeometry>
                </mxCell>
                <mxCell id="49" value="6" style="shape=partialRectangle;html=1;whiteSpace=wrap;connectable=0;fillColor=none;top=0;left=0;bottom=0;right=0;overflow=hidden;" vertex="1" parent="43">
                    <mxGeometry x="158" width="27" height="23" as="geometry">
                        <mxRectangle width="27" height="23" as="alternateBounds"/>
                    </mxGeometry>
                </mxCell>
                <mxCell id="50" value="0" style="shape=partialRectangle;html=1;whiteSpace=wrap;connectable=0;fillColor=none;top=0;left=0;bottom=0;right=0;overflow=hidden;" vertex="1" parent="43">
                    <mxGeometry x="185" width="26" height="23" as="geometry">
                        <mxRectangle width="26" height="23" as="alternateBounds"/>
                    </mxGeometry>
                </mxCell>
                <mxCell id="51" value="1" style="shape=partialRectangle;html=1;whiteSpace=wrap;connectable=0;fillColor=none;top=0;left=0;bottom=0;right=0;overflow=hidden;" vertex="1" parent="43">
                    <mxGeometry x="211" width="26" height="23" as="geometry">
                        <mxRectangle width="26" height="23" as="alternateBounds"/>
                    </mxGeometry>
                </mxCell>
                <mxCell id="52" value="2" style="shape=partialRectangle;html=1;whiteSpace=wrap;connectable=0;fillColor=none;top=0;left=0;bottom=0;right=0;overflow=hidden;" vertex="1" parent="43">
                    <mxGeometry x="237" width="26" height="23" as="geometry">
                        <mxRectangle width="26" height="23" as="alternateBounds"/>
                    </mxGeometry>
                </mxCell>
                <mxCell id="53" value="3" style="shape=partialRectangle;html=1;whiteSpace=wrap;connectable=0;fillColor=none;top=0;left=0;bottom=0;right=0;overflow=hidden;" vertex="1" parent="43">
                    <mxGeometry x="263" width="26" height="23" as="geometry">
                        <mxRectangle width="26" height="23" as="alternateBounds"/>
                    </mxGeometry>
                </mxCell>
                <mxCell id="54" value="4" style="shape=partialRectangle;html=1;whiteSpace=wrap;connectable=0;fillColor=none;top=0;left=0;bottom=0;right=0;overflow=hidden;" vertex="1" parent="43">
                    <mxGeometry x="289" width="26" height="23" as="geometry">
                        <mxRectangle width="26" height="23" as="alternateBounds"/>
                    </mxGeometry>
                </mxCell>
                <mxCell id="55" value="5" style="shape=partialRectangle;html=1;whiteSpace=wrap;connectable=0;fillColor=none;top=0;left=0;bottom=0;right=0;overflow=hidden;" vertex="1" parent="43">
                    <mxGeometry x="315" width="26" height="23" as="geometry">
                        <mxRectangle width="26" height="23" as="alternateBounds"/>
                    </mxGeometry>
                </mxCell>
                <mxCell id="56" value="6" style="shape=partialRectangle;html=1;whiteSpace=wrap;connectable=0;fillColor=none;top=0;left=0;bottom=0;right=0;overflow=hidden;" vertex="1" parent="43">
                    <mxGeometry x="341" width="26" height="23" as="geometry">
                        <mxRectangle width="26" height="23" as="alternateBounds"/>
                    </mxGeometry>
                </mxCell>
                <mxCell id="57" value="7" style="shape=partialRectangle;html=1;whiteSpace=wrap;connectable=0;fillColor=none;top=0;left=0;bottom=0;right=0;overflow=hidden;" vertex="1" parent="43">
                    <mxGeometry x="367" width="26" height="23" as="geometry">
                        <mxRectangle width="26" height="23" as="alternateBounds"/>
                    </mxGeometry>
                </mxCell>
                <mxCell id="58" value="0" style="shape=partialRectangle;html=1;whiteSpace=wrap;connectable=0;fillColor=none;top=0;left=0;bottom=0;right=0;overflow=hidden;" vertex="1" parent="43">
                    <mxGeometry x="393" width="26" height="23" as="geometry">
                        <mxRectangle width="26" height="23" as="alternateBounds"/>
                    </mxGeometry>
                </mxCell>
                <mxCell id="59" value="..." style="shape=partialRectangle;html=1;whiteSpace=wrap;connectable=0;fillColor=none;top=0;left=0;bottom=0;right=0;overflow=hidden;" vertex="1" parent="43">
                    <mxGeometry x="419" width="26" height="23" as="geometry">
                        <mxRectangle width="26" height="23" as="alternateBounds"/>
                    </mxGeometry>
                </mxCell>
                <mxCell id="103" value="储存+7%7" style="rounded=1;whiteSpace=wrap;html=1;" vertex="1" parent="1">
                    <mxGeometry x="30" y="203" width="70" height="30" as="geometry"/>
                </mxCell>
                <mxCell id="104" value="取出+8%7" style="rounded=1;whiteSpace=wrap;html=1;" vertex="1" parent="1">
                    <mxGeometry x="30" y="270" width="70" height="30" as="geometry"/>
                </mxCell>
                <mxCell id="121" value="" style="endArrow=classic;html=1;" edge="1" parent="1">
                    <mxGeometry width="50" height="50" relative="1" as="geometry">
                        <mxPoint x="135" y="200" as="sourcePoint"/>
                        <mxPoint x="135" y="240" as="targetPoint"/>
                    </mxGeometry>
                </mxCell>
                <mxCell id="122" value="" style="endArrow=classic;html=1;exitX=0.476;exitY=1.106;exitDx=0;exitDy=0;exitPerimeter=0;entryX=0.504;entryY=-0.136;entryDx=0;entryDy=0;entryPerimeter=0;" edge="1" parent="1" source="4" target="43">
                    <mxGeometry width="50" height="50" relative="1" as="geometry">
                        <mxPoint x="344" y="180" as="sourcePoint"/>
                        <mxPoint x="344" y="230" as="targetPoint"/>
                    </mxGeometry>
                </mxCell>
                <mxCell id="143" value="" style="shape=table;html=1;whiteSpace=wrap;startSize=0;container=1;collapsible=0;childLayout=tableLayout;" vertex="1" parent="1">
                    <mxGeometry x="120" y="300" width="471" height="23" as="geometry"/>
                </mxCell>
                <mxCell id="144" value="" style="shape=tableRow;horizontal=0;startSize=0;swimlaneHead=0;swimlaneBody=0;top=0;left=0;bottom=0;right=0;collapsible=0;dropTarget=0;fillColor=none;points=[[0,0.5],[1,0.5]];portConstraint=eastwest;" vertex="1" parent="143">
                    <mxGeometry width="471" height="23" as="geometry"/>
                </mxCell>
                <mxCell id="145" value="0" style="shape=partialRectangle;html=1;whiteSpace=wrap;connectable=0;fillColor=none;top=0;left=0;bottom=0;right=0;overflow=hidden;" vertex="1" parent="144">
                    <mxGeometry width="27" height="23" as="geometry">
                        <mxRectangle width="27" height="23" as="alternateBounds"/>
                    </mxGeometry>
                </mxCell>
                <mxCell id="146" value="1" style="shape=partialRectangle;html=1;whiteSpace=wrap;connectable=0;fillColor=none;top=0;left=0;bottom=0;right=0;overflow=hidden;" vertex="1" parent="144">
                    <mxGeometry x="27" width="27" height="23" as="geometry">
                        <mxRectangle width="27" height="23" as="alternateBounds"/>
                    </mxGeometry>
                </mxCell>
                <mxCell id="147" value="2" style="shape=partialRectangle;html=1;whiteSpace=wrap;connectable=0;fillColor=none;top=0;left=0;bottom=0;right=0;overflow=hidden;" vertex="1" parent="144">
                    <mxGeometry x="54" width="25" height="23" as="geometry">
                        <mxRectangle width="25" height="23" as="alternateBounds"/>
                    </mxGeometry>
                </mxCell>
                <mxCell id="148" value="3" style="shape=partialRectangle;html=1;whiteSpace=wrap;connectable=0;fillColor=none;top=0;left=0;bottom=0;right=0;overflow=hidden;" vertex="1" parent="144">
                    <mxGeometry x="79" width="27" height="23" as="geometry">
                        <mxRectangle width="27" height="23" as="alternateBounds"/>
                    </mxGeometry>
                </mxCell>
                <mxCell id="149" value="4" style="shape=partialRectangle;html=1;whiteSpace=wrap;connectable=0;fillColor=none;top=0;left=0;bottom=0;right=0;overflow=hidden;" vertex="1" parent="144">
                    <mxGeometry x="106" width="26" height="23" as="geometry">
                        <mxRectangle width="26" height="23" as="alternateBounds"/>
                    </mxGeometry>
                </mxCell>
                <mxCell id="150" value="5" style="shape=partialRectangle;html=1;whiteSpace=wrap;connectable=0;fillColor=none;top=0;left=0;bottom=0;right=0;overflow=hidden;" vertex="1" parent="144">
                    <mxGeometry x="132" width="26" height="23" as="geometry">
                        <mxRectangle width="26" height="23" as="alternateBounds"/>
                    </mxGeometry>
                </mxCell>
                <mxCell id="151" value="6" style="shape=partialRectangle;html=1;whiteSpace=wrap;connectable=0;fillColor=none;top=0;left=0;bottom=0;right=0;overflow=hidden;" vertex="1" parent="144">
                    <mxGeometry x="158" width="27" height="23" as="geometry">
                        <mxRectangle width="27" height="23" as="alternateBounds"/>
                    </mxGeometry>
                </mxCell>
                <mxCell id="152" value="7" style="shape=partialRectangle;html=1;whiteSpace=wrap;connectable=0;fillColor=none;top=0;left=0;bottom=0;right=0;overflow=hidden;" vertex="1" parent="144">
                    <mxGeometry x="185" width="26" height="23" as="geometry">
                        <mxRectangle width="26" height="23" as="alternateBounds"/>
                    </mxGeometry>
                </mxCell>
                <mxCell id="153" value="8" style="shape=partialRectangle;html=1;whiteSpace=wrap;connectable=0;fillColor=none;top=0;left=0;bottom=0;right=0;overflow=hidden;" vertex="1" parent="144">
                    <mxGeometry x="211" width="26" height="23" as="geometry">
                        <mxRectangle width="26" height="23" as="alternateBounds"/>
                    </mxGeometry>
                </mxCell>
                <mxCell id="154" value="9" style="shape=partialRectangle;html=1;whiteSpace=wrap;connectable=0;fillColor=none;top=0;left=0;bottom=0;right=0;overflow=hidden;" vertex="1" parent="144">
                    <mxGeometry x="237" width="26" height="23" as="geometry">
                        <mxRectangle width="26" height="23" as="alternateBounds"/>
                    </mxGeometry>
                </mxCell>
                <mxCell id="155" value="10" style="shape=partialRectangle;html=1;whiteSpace=wrap;connectable=0;fillColor=none;top=0;left=0;bottom=0;right=0;overflow=hidden;" vertex="1" parent="144">
                    <mxGeometry x="263" width="26" height="23" as="geometry">
                        <mxRectangle width="26" height="23" as="alternateBounds"/>
                    </mxGeometry>
                </mxCell>
                <mxCell id="156" value="11" style="shape=partialRectangle;html=1;whiteSpace=wrap;connectable=0;fillColor=none;top=0;left=0;bottom=0;right=0;overflow=hidden;" vertex="1" parent="144">
                    <mxGeometry x="289" width="26" height="23" as="geometry">
                        <mxRectangle width="26" height="23" as="alternateBounds"/>
                    </mxGeometry>
                </mxCell>
                <mxCell id="157" value="12" style="shape=partialRectangle;html=1;whiteSpace=wrap;connectable=0;fillColor=none;top=0;left=0;bottom=0;right=0;overflow=hidden;" vertex="1" parent="144">
                    <mxGeometry x="315" width="26" height="23" as="geometry">
                        <mxRectangle width="26" height="23" as="alternateBounds"/>
                    </mxGeometry>
                </mxCell>
                <mxCell id="158" value="13" style="shape=partialRectangle;html=1;whiteSpace=wrap;connectable=0;fillColor=none;top=0;left=0;bottom=0;right=0;overflow=hidden;" vertex="1" parent="144">
                    <mxGeometry x="341" width="26" height="23" as="geometry">
                        <mxRectangle width="26" height="23" as="alternateBounds"/>
                    </mxGeometry>
                </mxCell>
                <mxCell id="159" value="14" style="shape=partialRectangle;html=1;whiteSpace=wrap;connectable=0;fillColor=none;top=0;left=0;bottom=0;right=0;overflow=hidden;" vertex="1" parent="144">
                    <mxGeometry x="367" width="26" height="23" as="geometry">
                        <mxRectangle width="26" height="23" as="alternateBounds"/>
                    </mxGeometry>
                </mxCell>
                <mxCell id="160" value="15" style="shape=partialRectangle;html=1;whiteSpace=wrap;connectable=0;fillColor=none;top=0;left=0;bottom=0;right=0;overflow=hidden;" vertex="1" parent="144">
                    <mxGeometry x="393" width="26" height="23" as="geometry">
                        <mxRectangle width="26" height="23" as="alternateBounds"/>
                    </mxGeometry>
                </mxCell>
                <mxCell id="161" value="16" style="shape=partialRectangle;html=1;whiteSpace=wrap;connectable=0;fillColor=none;top=0;left=0;bottom=0;right=0;overflow=hidden;" vertex="1" parent="144">
                    <mxGeometry x="419" width="26" height="23" as="geometry">
                        <mxRectangle width="26" height="23" as="alternateBounds"/>
                    </mxGeometry>
                </mxCell>
                <mxCell id="162" value="..." style="shape=partialRectangle;html=1;whiteSpace=wrap;connectable=0;fillColor=none;top=0;left=0;bottom=0;right=0;overflow=hidden;" vertex="1" parent="144">
                    <mxGeometry x="445" width="26" height="23" as="geometry">
                        <mxRectangle width="26" height="23" as="alternateBounds"/>
                    </mxGeometry>
                </mxCell>
                <mxCell id="163" value="" style="endArrow=classic;html=1;exitX=0.031;exitY=-0.111;exitDx=0;exitDy=0;exitPerimeter=0;entryX=0.088;entryY=1.131;entryDx=0;entryDy=0;entryPerimeter=0;" edge="1" parent="1" source="144" target="43">
                    <mxGeometry width="50" height="50" relative="1" as="geometry">
                        <mxPoint x="320" y="180" as="sourcePoint"/>
                        <mxPoint x="370" y="130" as="targetPoint"/>
                    </mxGeometry>
                </mxCell>
                <mxCell id="164" value="" style="endArrow=classic;html=1;exitX=0.47;exitY=-0.136;exitDx=0;exitDy=0;exitPerimeter=0;entryX=0.566;entryY=1.131;entryDx=0;entryDy=0;entryPerimeter=0;" edge="1" parent="1" source="144" target="43">
                    <mxGeometry width="50" height="50" relative="1" as="geometry">
                        <mxPoint x="144.601" y="307.447" as="sourcePoint"/>
                        <mxPoint x="169.15999999999997" y="276.01300000000003" as="targetPoint"/>
                    </mxGeometry>
                </mxCell>
            </root>
        </mxGraphModel>
    </diagram>
</mxfile>